<svg width="836" height="679" viewBox="0 0 836 679" fill="none" xmlns="http://www.w3.org/2000/svg">
<rect x="835.201" y="269.201" width="80.7603" height="269.201" rx="18" transform="rotate(-180 835.201 269.201)" fill="#FF7865"/>
<rect x="835.201" width="80.7603" height="269.201" rx="18" transform="rotate(90 835.201 0)" fill="#FF7865"/>
<rect x="652.48" y="281.483" width="80.7603" height="306.385" rx="18" transform="rotate(129.294 652.48 281.483)" fill="#FF7865"/>
<rect x="566" y="651.853" width="80.7603" height="269.201" rx="18" transform="rotate(-90 566 651.853)" fill="#FF7865"/>
<rect x="647" y="651.001" width="81" height="382" rx="18" transform="rotate(-180 647 651.001)" fill="#FF7865"/>
<rect x="835.201" y="651.853" width="80.7603" height="269.201" rx="18" transform="rotate(180 835.201 651.853)" fill="#FF7865"/>
<rect width="80.7603" height="269.201" rx="18" transform="matrix(1 0 0 -1 0 269.208)" fill="#FF7865"/>
<rect width="80.7603" height="269.201" rx="18" transform="matrix(0 1 1 0 0 0.0078125)" fill="#FF7865"/>
<rect width="80.7603" height="303.8" rx="18" transform="matrix(0.633305 0.773902 0.773902 -0.633305 182.721 281.487)" fill="#FF7865"/>
<rect width="80.7603" height="269.201" rx="18" transform="matrix(0 -1 -1 0 269.201 651.856)" fill="#FF7865"/>
<rect width="81" height="382" rx="18" transform="matrix(1 0 0 -1 188.201 651.005)" fill="#FF7865"/>
<rect width="80.7603" height="269.201" rx="18" transform="matrix(1 0 0 -1 0 651.856)" fill="#FF7865"/>
<path d="M418 654.819L404.829 642.774C358.05 600.16 327.167 571.964 327.167 537.562C327.167 509.366 349.149 487.375 377.125 487.375C392.93 487.375 408.099 494.766 418 506.355C427.901 494.766 443.07 487.375 458.875 487.375C486.852 487.375 508.834 509.366 508.834 537.562C508.834 571.964 477.95 600.16 431.171 642.774L418 654.819Z" fill="#FDBFAB"/>
</svg>