<svg width="4666" height="1316" viewBox="0 0 4666 1316" fill="none" xmlns="http://www.w3.org/2000/svg">
<path d="M1137.41 766.918V1003H1029.81V351.959H1227.3C1302.06 351.959 1360.02 369.362 1401.19 404.169C1442.35 438.976 1462.93 488.008 1462.93 551.266C1462.93 614.524 1441.44 666.281 1398.46 706.536C1355.48 746.791 1297.37 766.918 1224.13 766.918H1137.41ZM1137.41 440.943V678.841H1207.33C1253.64 678.841 1288.9 668.097 1313.11 646.607C1337.32 625.118 1349.43 594.851 1349.43 555.806C1349.43 479.231 1304.94 440.943 1215.95 440.943H1137.41ZM1610.37 440.489C1593.12 440.489 1578.29 434.89 1565.88 423.691C1553.77 412.493 1547.72 398.267 1547.72 381.015C1547.72 363.763 1553.77 349.386 1565.88 337.885C1578.29 326.383 1593.12 320.632 1610.37 320.632C1628.23 320.632 1643.36 326.383 1655.77 337.885C1668.18 349.386 1674.39 363.763 1674.39 381.015C1674.39 397.359 1668.18 411.433 1655.77 423.237C1643.36 434.739 1628.23 440.489 1610.37 440.489ZM1662.58 1003H1557.26V538.1H1662.58V1003ZM2210 1003H2104.67V741.04C2104.67 654.174 2073.95 610.741 2012.51 610.741C1980.43 610.741 1953.95 622.848 1933.06 647.061C1912.18 670.972 1901.74 701.239 1901.74 737.862V1003H1795.95V538.1H1901.74V615.281H1903.55C1938.36 556.563 1988.6 527.204 2054.28 527.204C2104.83 527.204 2143.42 543.7 2170.05 576.691C2196.69 609.379 2210 656.747 2210 718.794V1003Z" fill="#FDBFAB"/>
<path d="M2869.11 1003H2760.6V720.61H2454.15V1003H2346.1V351.959H2454.15V625.723H2760.6V351.959H2869.11V1003ZM3219.49 1013.9C3147.76 1013.9 3090.4 992.255 3047.42 948.974C3004.75 905.389 2983.41 847.731 2983.41 775.998C2983.41 697.91 3005.65 636.922 3050.15 593.035C3094.94 549.148 3155.17 527.204 3230.84 527.204C3303.48 527.204 3360.08 548.542 3400.64 591.219C3441.19 633.895 3461.47 693.067 3461.47 768.734C3461.47 842.888 3439.53 902.363 3395.64 947.158C3352.06 991.65 3293.34 1013.9 3219.49 1013.9ZM3224.48 611.195C3183.32 611.195 3150.78 625.572 3126.87 654.325C3102.96 683.079 3091.01 722.728 3091.01 773.274C3091.01 822.004 3103.11 860.443 3127.33 888.591C3151.54 916.437 3183.93 930.359 3224.48 930.359C3265.95 930.359 3297.73 916.588 3319.82 889.045C3342.22 861.502 3353.42 822.307 3353.42 771.458C3353.42 720.307 3342.22 680.809 3319.82 652.963C3297.73 625.118 3265.95 611.195 3224.48 611.195ZM3969.85 1003H3864.52V929.451H3862.7C3832.13 985.748 3784.62 1013.9 3720.15 1013.9C3610.28 1013.9 3555.34 947.914 3555.34 815.95V538.1H3660.67V805.054C3660.67 888.591 3692.91 930.359 3757.38 930.359C3788.55 930.359 3814.13 918.858 3834.1 895.855C3854.38 872.852 3864.52 842.737 3864.52 805.508V538.1H3969.85V1003ZM4073.71 988.472V890.861C4113.05 920.825 4156.49 935.807 4204.01 935.807C4267.57 935.807 4299.35 917.042 4299.35 879.511C4299.35 868.918 4296.62 859.989 4291.17 852.725C4285.73 845.158 4278.31 838.499 4268.93 832.749C4259.85 826.998 4248.95 821.853 4236.24 817.312C4223.83 812.772 4209.91 807.627 4194.47 801.876C4175.4 794.31 4158.15 786.289 4142.72 777.814C4127.58 769.339 4114.87 759.805 4104.58 749.212C4094.59 738.316 4087.02 726.058 4081.88 712.438C4076.73 698.818 4074.16 682.927 4074.16 664.767C4074.16 642.37 4079.46 622.696 4090.05 605.747C4100.64 588.495 4114.87 574.118 4132.73 562.616C4150.58 550.812 4170.86 542.035 4193.56 536.284C4216.26 530.231 4239.72 527.204 4263.93 527.204C4306.91 527.204 4345.35 533.712 4379.25 546.726V638.889C4346.56 616.492 4309.03 605.293 4266.66 605.293C4253.34 605.293 4241.23 606.655 4230.34 609.379C4219.74 612.103 4210.66 615.886 4203.1 620.729C4195.53 625.572 4189.63 631.474 4185.39 638.435C4181.15 645.094 4179.04 652.509 4179.04 660.681C4179.04 670.669 4181.15 679.144 4185.39 686.105C4189.63 693.067 4195.83 699.272 4204.01 704.72C4212.48 709.865 4222.47 714.708 4233.97 719.248C4245.77 723.485 4259.24 728.176 4274.38 733.322C4294.35 741.494 4312.21 749.817 4327.95 758.292C4343.99 766.767 4357.61 776.452 4368.81 787.348C4380.01 797.942 4388.63 810.351 4394.69 824.577C4400.74 838.499 4403.77 855.146 4403.77 874.517C4403.77 898.125 4398.32 918.707 4387.42 936.261C4376.53 953.816 4362 968.344 4343.84 979.846C4325.68 991.347 4304.64 999.822 4280.73 1005.27C4257.12 1011.02 4232.15 1013.9 4205.82 1013.9C4154.97 1013.9 4110.94 1005.42 4073.71 988.472Z" fill="#FF7865"/>
<rect x="835.201" y="619.201" width="80.7603" height="269.201" rx="18" transform="rotate(-180 835.201 619.201)" fill="#FF7865"/>
<rect x="835.201" y="350" width="80.7603" height="269.201" rx="18" transform="rotate(90 835.201 350)" fill="#FF7865"/>
<rect x="652.48" y="631.483" width="80.7603" height="306.385" rx="18" transform="rotate(129.294 652.48 631.483)" fill="#FF7865"/>
<rect x="566" y="1001.85" width="80.7603" height="269.201" rx="18" transform="rotate(-90 566 1001.85)" fill="#FF7865"/>
<rect x="647" y="1001" width="81" height="382" rx="18" transform="rotate(-180 647 1001)" fill="#FF7865"/>
<rect x="835.201" y="1001.85" width="80.7603" height="269.201" rx="18" transform="rotate(180 835.201 1001.85)" fill="#FF7865"/>
<rect width="80.7603" height="269.201" rx="18" transform="matrix(1 0 0 -1 0 619.208)" fill="#FF7865"/>
<rect width="80.7603" height="269.201" rx="18" transform="matrix(0 1 1 0 0 350.008)" fill="#FF7865"/>
<rect width="80.7603" height="303.8" rx="18" transform="matrix(0.633305 0.773902 0.773902 -0.633305 182.721 631.487)" fill="#FF7865"/>
<rect width="80.7603" height="269.201" rx="18" transform="matrix(0 -1 -1 0 269.201 1001.86)" fill="#FF7865"/>
<rect width="81" height="382" rx="18" transform="matrix(1 0 0 -1 188.201 1001)" fill="#FF7865"/>
<rect width="80.7603" height="269.201" rx="18" transform="matrix(1 0 0 -1 0 1001.86)" fill="#FF7865"/>
<path d="M418 1004.82L404.829 992.774C358.05 950.16 327.167 921.964 327.167 887.562C327.167 859.366 349.149 837.375 377.125 837.375C392.93 837.375 408.099 844.766 418 856.355C427.901 844.766 443.07 837.375 458.875 837.375C486.852 837.375 508.834 859.366 508.834 887.562C508.834 921.964 477.95 950.16 431.171 992.774L418 1004.82Z" fill="#FDBFAB"/>
</svg>