<svg width="230" height="230" viewBox="0 0 230 230" fill="none" xmlns="http://www.w3.org/2000/svg">
<circle cx="115" cy="115" r="115" fill="#FDBFAB"/>
<path d="M78.575 104.653V82.1737C78.5752 79.9908 79.138 77.8449 80.2091 75.9429C81.2802 74.0408 82.8235 72.447 84.69 71.3152L106.915 57.8405C108.901 56.6366 111.178 56 113.5 56C115.822 56 118.099 56.6366 120.085 57.8405L142.31 71.3089C144.176 72.4407 145.72 74.0345 146.791 75.9365C147.862 77.8385 148.425 79.9845 148.425 82.1674V104.653M138.9 174.503H164.3C167.668 174.503 170.899 173.165 173.28 170.783C175.662 168.401 177 165.171 177 161.803V132.974C177 130.791 176.437 128.645 175.366 126.743C174.295 124.841 172.751 123.247 170.885 122.115L148.622 108.621C146.646 107.424 144.381 106.788 142.07 106.782C139.759 106.777 137.491 107.402 135.509 108.59L131.49 111.003M107.15 174.503H62.7C59.3318 174.503 56.1015 173.165 53.7197 170.783C51.338 168.401 50 165.171 50 161.803V132.974C50.0002 130.791 50.563 128.645 51.6341 126.743C52.7052 124.841 54.2485 123.247 56.1151 122.115L78.34 108.641C80.3255 107.437 82.603 106.8 84.925 106.8C87.247 106.8 89.5245 107.437 91.5099 108.641L113.735 122.109C115.602 123.241 117.146 124.836 118.217 126.739C119.289 128.642 119.851 130.79 119.85 132.974V161.803C119.85 165.171 118.512 168.401 116.13 170.783C113.749 173.165 110.518 174.503 107.15 174.503Z" stroke="white" stroke-width="6" stroke-linecap="round" stroke-linejoin="round"/>
<path d="M94.4494 174.502V152.912C94.4494 151.902 94.048 150.933 93.3335 150.218C92.619 149.504 91.6499 149.102 90.6394 149.102H79.2094C78.1989 149.102 77.2299 149.504 76.5153 150.218C75.8008 150.933 75.3994 151.902 75.3994 152.912V174.502M151.599 174.502V152.912C151.599 151.902 151.198 150.933 150.483 150.218C149.769 149.504 148.8 149.102 147.789 149.102H138.899" stroke="white" stroke-width="6" stroke-linecap="round" stroke-linejoin="round"/>
</svg>

