<svg width="160" height="160" viewBox="0 0 160 160" fill="none" xmlns="http://www.w3.org/2000/svg">
<circle cx="80" cy="80" r="80" fill="#FDBFAB"/>
<path d="M65 75.4316V65.9916C65.0001 65.0749 65.2364 64.1737 65.6862 63.375C66.1361 62.5762 66.7842 61.9069 67.568 61.4316L76.9013 55.7729C77.7351 55.2673 78.6916 55 79.6667 55C80.6418 55 81.5982 55.2673 82.432 55.7729L91.7653 61.4289C92.5492 61.9042 93.1973 62.5735 93.6471 63.3723C94.0969 64.171 94.3333 65.0722 94.3333 65.9889V75.4316M90.3333 104.765H101C102.414 104.765 103.771 104.203 104.771 103.203C105.771 102.203 106.333 100.846 106.333 99.4316V87.3249C106.333 86.4082 106.097 85.507 105.647 84.7083C105.197 83.9095 104.549 83.2402 103.765 82.7649L94.416 77.0983C93.5862 76.5953 92.6349 76.3283 91.6645 76.3259C90.6942 76.3236 89.7416 76.586 88.9093 77.0849L87.2213 78.0983M77 104.765H58.3333C56.9188 104.765 55.5623 104.203 54.5621 103.203C53.5619 102.203 53 100.846 53 99.4316V87.3249C53.0001 86.4082 53.2364 85.507 53.6862 84.7083C54.1361 83.9095 54.7842 83.2402 55.568 82.7649L64.9013 77.1063C65.7351 76.6007 66.6916 76.3333 67.6667 76.3333C68.6418 76.3333 69.5982 76.6007 70.432 77.1063L79.7653 82.7623C80.5496 83.2378 81.1979 83.9075 81.6478 84.7068C82.0976 85.506 82.3337 86.4078 82.3333 87.3249V99.4316C82.3333 100.846 81.7714 102.203 80.7712 103.203C79.771 104.203 78.4145 104.765 77 104.765Z" stroke="white" stroke-width="4" stroke-linecap="round" stroke-linejoin="round"/>
<path d="M71.6658 104.765V95.6981C71.6658 95.2738 71.4972 94.8668 71.1971 94.5668C70.8971 94.2667 70.4901 94.0981 70.0658 94.0981H65.2658C64.8414 94.0981 64.4345 94.2667 64.1344 94.5668C63.8343 94.8668 63.6658 95.2738 63.6658 95.6981V104.765M95.6658 104.765V95.6981C95.6658 95.2738 95.4972 94.8668 95.1971 94.5668C94.8971 94.2667 94.4901 94.0981 94.0658 94.0981H90.3324" stroke="white" stroke-width="4" stroke-linecap="round" stroke-linejoin="round"/>
</svg>