<svg width="160" height="160" viewBox="0 0 160 160" fill="none" xmlns="http://www.w3.org/2000/svg">
<circle cx="80" cy="80" r="80" fill="#FA8072"/>
<rect x="110" y="75.339" width="5.80168" height="19.3389" rx="2.90084" transform="rotate(-180 110 75.339)" fill="white"/>
<rect x="110" y="56.0003" width="5.80168" height="19.339" rx="2.90084" transform="rotate(90 110 56.0003)" fill="white"/>
<rect x="96.8733" y="76.2213" width="5.80168" height="22.0102" rx="2.90084" transform="rotate(129.294 96.8733 76.2213)" fill="white"/>
<rect x="90.6604" y="102.829" width="5.80168" height="19.339" rx="2.90084" transform="rotate(-90 90.6604 102.829)" fill="white"/>
<rect x="96.4795" y="102.767" width="5.8189" height="27.4422" rx="2.90945" transform="rotate(-180 96.4795 102.767)" fill="white"/>
<rect x="109.999" y="102.829" width="5.80168" height="19.3389" rx="2.90084" transform="rotate(180 109.999 102.829)" fill="white"/>
<rect width="5.80168" height="19.3389" rx="2.90084" transform="matrix(1 0 0 -1 50.0007 75.3399)" fill="white"/>
<rect width="5.80168" height="19.339" rx="2.90084" transform="matrix(0 1 1 0 50.0007 56.0012)" fill="white"/>
<rect width="5.80168" height="21.8245" rx="2.90084" transform="matrix(0.633305 0.773902 0.773902 -0.633305 63.1272 76.2223)" fill="white"/>
<rect width="5.80168" height="19.339" rx="2.90084" transform="matrix(0 -1 -1 0 69.3391 102.829)" fill="white"/>
<rect width="5.8189" height="27.4422" rx="2.90945" transform="matrix(1 0 0 -1 63.5198 102.767)" fill="white"/>
<rect width="5.80168" height="19.3389" rx="2.90084" transform="matrix(1 0 0 -1 50.0007 102.829)" fill="white"/>
<path d="M80.0003 103.143L79.3789 102.434C77.1717 99.9251 75.7146 98.2653 75.7146 96.2401C75.7146 94.5803 76.7517 93.2857 78.0717 93.2857C78.8175 93.2857 79.5332 93.7208 80.0003 94.403C80.4675 93.7208 81.1832 93.2857 81.9289 93.2857C83.2489 93.2857 84.286 94.5803 84.286 96.2401C84.286 98.2653 82.8289 99.9251 80.6217 102.434L80.0003 103.143Z" fill="white"/>
</svg>